<svg width="35" height="35" viewBox="0 0 35 35" fill="none" xmlns="http://www.w3.org/2000/svg">
<path d="M17.5005 10.9966V17.4998L21.565 21.5643" stroke="#201B10" stroke-width="2.43872" stroke-linecap="round" stroke-linejoin="round"/>
<path d="M8.08154 27.979C13.4845 32.8531 21.6732 32.8925 27.0229 28.0825L27.687 28.7466C21.9654 33.9289 13.1824 33.8775 7.41748 28.6421L8.08154 27.979ZM28.6431 7.4165C33.8782 13.1812 33.9283 21.9643 28.7476 27.686L28.0835 27.022C32.8934 21.6721 32.8545 13.4824 27.98 8.07959L28.6431 7.4165ZM3.38623 16.1675C3.22384 18.1102 3.46067 20.0685 4.08643 21.9204C4.71199 23.7718 5.71122 25.4717 7.01807 26.9175L6.35498 27.5806C4.94574 26.0315 3.86865 24.2065 3.19678 22.2173C2.52514 20.2287 2.27457 18.1252 2.45557 16.0396L3.38623 16.1675ZM8.43408 8.70752L8.4292 9.646L7.34521 9.64111L7.96338 9.02295L8.27881 8.70654L8.43408 8.70752ZM7.31396 6.25244C13.0351 1.07079 21.8177 1.12192 27.5825 6.35596L26.9194 7.01904C21.5165 2.14575 13.3265 2.10602 7.97705 6.91553L7.31396 6.25244ZM5.49561 5.92139L4.56201 6.85498L4.55615 5.77393L5.49463 5.76807L5.49561 5.92139Z" stroke="#201B10" stroke-width="1.5"/>
</svg>
